<?xml version="1.0" encoding="UTF-8"?>
<svg width="128" height="128" viewBox="0 0 128 128" xmlns="http://www.w3.org/2000/svg" role="img" aria-labelledby="title desc">
  <title id="title">Soya Plugin Icon</title>
  <desc id="desc">A simple green circle with a white soybean mark</desc>
  <!-- Background -->
  <circle cx="64" cy="64" r="60" fill="#36B37E"/>
  <!-- Bean mark -->
  <g transform="translate(64,64) rotate(-18) translate(-64,-64)">
    <path d="M78 40c-10 0-18 6.5-22 12.8C52 65.5 54 80 66 86c10.7 5.5 22.2 2.4 28.5-6 6.2-8.2 5.8-19.8-1.8-27.4C89.7 44.1 83.9 40 78 40z"
          fill="#FFFFFF"/>
    <path d="M73.5 49.5c-4.8 0-9 2.8-11.2 6.9c-2.1 3.9-2 9.2 1.8 12c4.4 3.3 10.3 1.6 13.8-2.1c3.6-3.9 4.5-9.8 1.5-13.6c-1.9-2.4-3.8-3.2-5.9-3.2z"
          fill="#E6F7EF"/>
  </g>
  <!-- Subtle inner shadow ring -->
  <circle cx="64" cy="64" r="60" fill="none" stroke="#1F2A35" stroke-opacity="0.08" stroke-width="4"/>
</svg>
